<svg xmlns="http://www.w3.org/2000/svg" xmlns:xlink="http://www.w3.org/1999/xlink" width="500" zoomAndPan="magnify" viewBox="0 0 375 374.999991" height="500" preserveAspectRatio="xMidYMid meet" version="1.0"><defs><clipPath id="0005e1dc14"><path d="M 51.121094 106 L 330.121094 106 L 330.121094 353.125 L 51.121094 353.125 Z M 51.121094 106 " clip-rule="nonzero"/></clipPath><clipPath id="2332c57985"><path d="M 51.121094 29.875 L 318 29.875 L 318 198 L 51.121094 198 Z M 51.121094 29.875 " clip-rule="nonzero"/></clipPath></defs><rect x="-37.5" width="450" fill="#ffffff" y="-37.499999" height="449.999989" fill-opacity="1"/><rect x="-37.5" width="450" fill="#ffffff" y="-37.499999" height="449.999989" fill-opacity="1"/><g clip-path="url(#0005e1dc14)"><path fill="#222a34" d="M 321.550781 106.808594 C 190.816406 105.382812 90.917969 152.933594 51.121094 296.003906 L 51.121094 353.253906 L 121.125 353.253906 L 121.125 264.953125 L 198.617188 264.953125 L 249.59375 353.253906 L 330.460938 353.253906 L 270.257812 248.980469 C 305.207031 228.527344 328.773438 190.574219 328.773438 147.398438 C 328.773438 133.164062 326.242188 119.511719 321.550781 106.808594 Z M 321.550781 106.808594 " fill-opacity="1" fill-rule="evenodd"/></g><g clip-path="url(#2332c57985)"><path fill="#222a34" d="M 51.121094 197.953125 C 115.484375 112.816406 209.054688 89.410156 317.28125 96.84375 C 298.300781 57.359375 257.816406 29.894531 211.269531 29.894531 L 51.121094 29.894531 L 51.121094 123.675781 C 109.582031 86.144531 179.375 70.488281 263.035156 81.664062 C 175.6875 77.179688 105.945312 104.382812 51.121094 158.363281 Z M 51.121094 197.953125 " fill-opacity="1" fill-rule="evenodd"/></g></svg>